<svg width="30" height="30" viewBox="0 0 30 30" fill="none" xmlns="http://www.w3.org/2000/svg">
<path fill-rule="evenodd" clip-rule="evenodd" d="M0 6C0 2.68629 2.68629 0 6 0H24C27.3137 0 30 2.68629 30 6V24C30 27.3137 27.3137 30 24 30H6C2.68629 30 0 27.3137 0 24V6ZM6 3C4.34314 3 3 4.34314 3 6V24C3 25.6569 4.34314 27 6 27H15V16.5H13.5C12.6715 16.5 12 15.8285 12 15C12 14.1715 12.6715 13.5 13.5 13.5H15V11.25C15 8.3505 17.3505 6 20.25 6H21.15C21.9785 6 22.65 6.67158 22.65 7.5C22.65 8.32842 21.9785 9 21.15 9H20.25C19.0074 9 18 10.0074 18 11.25V13.5H21.15C21.9785 13.5 22.65 14.1715 22.65 15C22.65 15.8285 21.9785 16.5 21.15 16.5H18V27H24C25.6569 27 27 25.6569 27 24V6C27 4.34314 25.6569 3 24 3H6Z" fill="white"/>
</svg>
