<svg width="15" height="12" viewBox="0 0 15 12" fill="none" xmlns="http://www.w3.org/2000/svg">
<path d="M7.14645 1.47855L7.29289 1.625H7.5H13.875C13.9855 1.625 14.0963 1.65714 14.215 1.75H13.875H7.23836L6.2598 0.771447L6.11336 0.625H5.90625H1.125H0.773219C0.88597 0.535065 0.999579 0.5 1.125 0.5H6.16789L7.14645 1.47855ZM14.375 2.25V1.91005C14.4679 2.02874 14.5 2.13953 14.5 2.25V10.875C14.5 10.9855 14.4679 11.0963 14.375 11.215V10.875V2.25ZM13.875 11.375H14.215C14.0963 11.4679 13.9855 11.5 13.875 11.5H1.125C0.999578 11.5 0.885969 11.4649 0.773219 11.375H1.125H13.875ZM0.625 10.875V11.2231C0.533115 11.1035 0.5 10.9901 0.5 10.875V1.125C0.5 1.00987 0.533115 0.89654 0.625 0.776939V1.125V10.875Z" fill="#4D4D4D" stroke="#555555"/>
</svg>
