<svg width="30" height="30" viewBox="0 0 30 30" fill="none" xmlns="http://www.w3.org/2000/svg">
<path d="M19.1007 16.4359C19.0917 16.794 18.7996 17.0801 18.4405 17.0801C18.4355 17.0801 18.4305 17.0801 18.4265 17.0801H16.1709C16.1668 17.0801 16.1618 17.0801 16.1568 17.0801C15.7977 17.0801 15.5057 16.793 15.4966 16.4359V11.6595C15.5057 11.2694 15.8227 10.9563 16.2149 10.9563C16.607 10.9563 16.9241 11.2694 16.9331 11.6585V15.7897H18.4275C18.4315 15.7897 18.4365 15.7897 18.4415 15.7897C18.8006 15.7897 19.0927 16.0768 19.1017 16.4339L19.1007 16.4359ZM11.7195 14.7064L12.4217 12.7108L13.1239 14.7064H11.7195ZM13.359 11.6525C13.233 11.2474 12.8609 10.9583 12.4217 10.9583C11.9826 10.9583 11.6115 11.2474 11.4864 11.6455L11.4844 11.6525L9.80294 16.0798C9.58988 16.743 9.77593 16.9891 9.96999 17.0781C10.101 17.1391 10.2541 17.1752 10.4151 17.1752C10.4161 17.1752 10.4161 17.1752 10.4171 17.1752C10.4381 17.1782 10.4631 17.1792 10.4881 17.1792C10.7112 17.1792 10.9043 17.0531 11.0003 16.8681L11.0023 16.8651L11.3504 15.9528H13.494L13.8422 16.8641C13.9402 17.0521 14.1332 17.1792 14.3563 17.1792C14.3813 17.1792 14.4063 17.1772 14.4303 17.1742H14.4273C14.5894 17.1742 14.7434 17.1381 14.8805 17.0751L14.8735 17.0781C15.0675 16.9891 15.2536 16.743 15.0395 16.0778L13.359 11.6525ZM23.7961 16.0298C23.8822 16.1448 23.9342 16.2909 23.9342 16.4479C23.9342 16.8361 23.6191 17.1511 23.231 17.1511C23.0049 17.1511 22.8038 17.0441 22.6748 16.8781L22.6738 16.8761L21.0243 14.6914L20.7802 14.9355V16.4699C20.7752 16.8541 20.4621 17.1641 20.077 17.1641C19.6919 17.1641 19.3788 16.8551 19.3738 16.4709V11.6605C19.3738 11.2724 19.6889 10.9573 20.077 10.9573C20.4651 10.9573 20.7802 11.2724 20.7802 11.6605V13.172L22.7418 11.2104C22.8399 11.1133 22.9759 11.0543 23.1249 11.0543C23.1279 11.0543 23.1299 11.0543 23.1329 11.0543C23.497 11.0643 23.7931 11.3474 23.8231 11.7055V11.7085C23.8241 11.7215 23.8251 11.7375 23.8251 11.7525C23.8251 11.9016 23.7651 12.0376 23.6681 12.1366L22.0656 13.7391L23.7961 16.0298ZM10.061 12.3347H8.96369V16.512C8.94568 16.8871 8.63759 17.1832 8.26048 17.1832C7.88336 17.1832 7.57527 16.8861 7.55727 16.513V16.511V12.3337H6.45994C6.07982 12.3337 5.77173 12.0256 5.77173 11.6455C5.77173 11.2654 6.07982 10.9573 6.45994 10.9573H10.06C10.4401 10.9573 10.7482 11.2654 10.7482 11.6455C10.7482 12.0256 10.4401 12.3337 10.06 12.3337L10.061 12.3347ZM14.9995 23.438C14.9965 23.438 14.9935 23.438 14.9895 23.438C14.2293 23.438 13.482 23.383 12.7518 23.277L12.8349 23.287C12.1316 23.7821 8.06842 26.637 7.68531 26.69C7.64829 26.704 7.60528 26.712 7.56027 26.712C7.50025 26.712 7.44223 26.697 7.39222 26.671L7.39422 26.672C7.26018 26.593 7.28519 26.3869 7.28519 26.3869C7.3252 26.1118 8.3385 22.6138 8.52556 21.9706C5.28158 20.5752 3.0109 17.4892 2.81384 13.8522L2.81284 13.8281C2.81284 8.52056 8.26948 4.21827 15.0005 4.21827C21.7315 4.21827 27.1882 8.52056 27.1882 13.8281C27.1882 19.1357 21.7305 23.438 14.9995 23.438ZM27.6563 0H2.3437C1.04931 0 0 1.04931 0 2.3437V27.6563C0 28.9507 1.04931 30 2.3437 30H27.6563C28.9507 30 30 28.9507 30 27.6563V2.3437C30 1.04931 28.9507 0 27.6563 0Z" fill="white"/>
</svg>
