<svg width="30" height="30" viewBox="0 0 30 23" fill="none" xmlns="http://www.w3.org/2000/svg">
<path d="M28.8018 19.2934C28.2534 20.5263 26.8387 21.6429 25.5102 21.8894C25.3742 21.9147 22.1276 22.5007 15.0089 22.5007H14.9902C7.87243 22.5007 4.62296 21.9147 4.48795 21.8904C3.15947 21.6429 1.7438 20.5263 1.19441 19.2925C1.14566 19.1828 0 16.5446 0 11.2504C0 5.95612 1.14566 3.31698 1.19441 3.20729C1.7438 1.9735 3.15947 0.857839 4.48795 0.611269C4.62296 0.585956 7.87243 0 14.9902 0C22.1276 0 25.3742 0.585956 25.5092 0.610332C26.8386 0.857839 28.2534 1.9735 28.8028 3.20635C28.8515 3.31698 30 5.95612 30 11.2504C30 16.5446 28.8515 19.1828 28.8018 19.2934ZM27.0871 3.96575C26.7946 3.30854 25.8777 2.58664 25.167 2.45445C25.137 2.44883 21.9241 1.87506 15.0089 1.87506C8.07588 1.87506 4.86015 2.44883 4.82921 2.45445C4.11857 2.58664 3.2026 3.30854 2.90915 3.9695C2.89978 3.98919 1.876 6.40239 1.876 11.2504C1.876 16.0974 2.89978 18.5106 2.91103 18.535C3.2026 19.1922 4.11857 19.9141 4.83015 20.0463C4.86015 20.0519 8.07588 20.6256 14.9902 20.6256H15.0089C21.9241 20.6256 25.137 20.0519 25.168 20.0463C25.8786 19.9141 26.7946 19.1922 27.088 18.5312C27.0974 18.5106 28.1231 16.0974 28.1231 11.2504C28.1231 6.40332 27.0974 3.98919 27.0871 3.96575ZM12.6941 16.7311C12.5423 16.8277 12.3679 16.8755 12.1944 16.8755C12.0388 16.8755 11.8832 16.8371 11.7416 16.7583C11.4425 16.5933 11.2569 16.2793 11.2569 15.938V6.56271C11.2569 6.22238 11.4407 5.90925 11.7379 5.74424C12.0351 5.5783 12.3998 5.5858 12.6876 5.76487L20.2056 10.4113C20.4803 10.581 20.6491 10.881 20.65 11.2044C20.651 11.5279 20.486 11.8297 20.2122 12.0013L12.6941 16.7311ZM13.1329 8.24463V14.2401L17.9406 11.2157L13.1329 8.24463Z" fill="white"/>
</svg>
